<svg id="Laag_1" data-name="Laag 1" xmlns="http://www.w3.org/2000/svg" width="14" height="14" viewBox="0 0 14 14"><defs><style>.cls-1{fill:#a9a9a9;}.cls-1,.cls-2,.cls-3{fill-rule:evenodd;}.cls-2{fill:#0d0d0d;}.cls-3{fill:#939393;}</style></defs><g id="Action-icons"><g id="checkbox_14_partial_selected_for_tom_14x14" data-name="checkbox 14 partial selected for tom 14x14"><path id="BorderShape" class="cls-1" d="M2,0H12a2.0059,2.0059,0,0,1,2,2V12a2.0059,2.0059,0,0,1-2,2H2a2.0059,2.0059,0,0,1-2-2V2A2.0059,2.0059,0,0,1,2,0Z"/><path id="InnerShape" class="cls-2" d="M2,1H12a.9448.9448,0,0,1,1,1V12a.9448.9448,0,0,1-1,1H2a.9448.9448,0,0,1-1-1V2A.9448.9448,0,0,1,2,1Z"/><path id="Rectangle-2899" class="cls-3" d="M4,6h6a.9448.9448,0,0,1,1,1h0a.9448.9448,0,0,1-1,1H4A.9448.9448,0,0,1,3,7H3A.9448.9448,0,0,1,4,6Z"/></g></g></svg>