<?xml version="1.0" encoding="utf-8"?>
<!-- Generator: Adobe Illustrator 25.0.1, SVG Export Plug-In . SVG Version: 6.00 Build 0)  -->
<svg version="1.1" id="Laag_1" xmlns="http://www.w3.org/2000/svg" xmlns:xlink="http://www.w3.org/1999/xlink" x="0px" y="0px"
	 viewBox="0 0 14 14" style="enable-background:new 0 0 14 14;" xml:space="preserve">
<style type="text/css">
	.st0{fill-rule:evenodd;clip-rule:evenodd;fill:#A9A9A9;}
	.st1{fill-rule:evenodd;clip-rule:evenodd;fill:#0D0D0D;}
</style>
<desc>Created with Sketch.</desc>
<g id="Action-icons">
	<g id="checkbox_14_selected_14x14-copy-2" transform="translate(-870.000000, -120.000000)">
		<g transform="translate(870.000000, 120.000000)">
			<path id="BorderShape" class="st0" d="M2,0h10c1.1,0,2,0.9,2,2v10c0,1.1-0.9,2-2,2H2c-1.1,0-2-0.9-2-2V2C0,0.9,0.9,0,2,0z"/>
			<path id="InnerShape" class="st1" d="M2,1h10c0.6,0,1,0.4,1,1v10c0,0.6-0.4,1-1,1H2c-0.6,0-1-0.4-1-1V2C1,1.4,1.4,1,2,1z"/>
		</g>
	</g>
</g>
</svg>
