<svg id="Laag_1" data-name="Laag 1" xmlns="http://www.w3.org/2000/svg" width="14" height="14" viewBox="0 0 14 14"><defs><style>.cls-1{fill:#a9a9a9;}.cls-1,.cls-2{fill-rule:evenodd;}.cls-2{fill:#0d0d0d;}</style></defs><g id="Action-icons"><g id="checkbox_14_selected_14x14-copy-2" data-name="checkbox 14 selected 14x14-copy-2"><path id="BorderShape" class="cls-1" d="M2,0H12a2.0059,2.0059,0,0,1,2,2V12a2.0059,2.0059,0,0,1-2,2H2a2.0059,2.0059,0,0,1-2-2V2A2.0059,2.0059,0,0,1,2,0Z"/><path id="InnerShape" class="cls-2" d="M2,1H12a.9448.9448,0,0,1,1,1V12a.9448.9448,0,0,1-1,1H2a.9448.9448,0,0,1-1-1V2A.9448.9448,0,0,1,2,1Z"/></g></g></svg>