<svg width="24" height="24" viewBox="0 0 24 24" fill="none" xmlns="http://www.w3.org/2000/svg">
<g clip-path="url(#clip0)">
<path d="M23.8013 4.98475L19.0147 0.198748C18.9518 0.135857 18.8772 0.0859656 18.7951 0.0519261C18.7129 0.0178866 18.6249 0.000366211 18.536 0.000366211C18.4471 0.000366211 18.3591 0.0178866 18.2769 0.0519261C18.1948 0.0859656 18.1202 0.135857 18.0573 0.198748L2.26333 15.9927C2.20042 16.0556 2.15052 16.1303 2.11647 16.2125C2.08242 16.2947 2.06489 16.3828 2.06489 16.4717C2.06489 16.5607 2.08242 16.6488 2.11647 16.731C2.15052 16.8132 2.20042 16.8879 2.26333 16.9507C2.74333 17.4301 0.17 22.2568 0 22.6147L1.37867 24.0001C1.736 23.8301 6.56867 21.2567 7.04933 21.7367C7.11217 21.7996 7.18679 21.8495 7.26893 21.8836C7.35106 21.9176 7.43909 21.9351 7.528 21.9351C7.61691 21.9351 7.70494 21.9176 7.78707 21.8836C7.86921 21.8495 7.94383 21.7996 8.00667 21.7367L23.8013 5.94208C23.8642 5.87924 23.9141 5.80462 23.9482 5.72249C23.9822 5.64036 23.9997 5.55232 23.9997 5.46342C23.9997 5.37451 23.9822 5.28647 23.9482 5.20434C23.9141 5.12221 23.8642 5.04759 23.8013 4.98475Z" fill="#dfdfdf"/>
<path d="M2.75928 15.4933L17.6046 0.647949L23.3513 6.39462L8.50594 21.24L2.75928 15.4933Z" fill="#adadad"/>
<path d="M15.6893 2.56402L16.6473 1.60669L22.394 7.35336L21.436 8.31069L15.6893 2.56402ZM3.71729 14.5354L4.67462 13.5774L10.4213 19.324L9.46328 20.282L3.71729 14.5354Z" fill="#ececec"/>
<path d="M17.924 6.23531C16.91 5.22131 13.936 6.55264 11.2794 9.20798C8.62403 11.864 7.29336 14.8386 8.30669 15.8526C9.32003 16.8666 12.2954 15.5353 14.9514 12.88C17.6067 10.224 18.9374 7.24864 17.924 6.23531Z" fill="#e4e4e4"/>
</g>
<defs>
<clipPath id="clip0">
<rect width="24" height="24" fill="white"/>
</clipPath>
</defs>
</svg>
