<?xml version="1.0" encoding="utf-8"?>
<!-- Generator: Adobe Illustrator 25.1.0, SVG Export Plug-In . SVG Version: 6.00 Build 0)  -->
<svg version="1.1" id="Laag_1" xmlns="http://www.w3.org/2000/svg" xmlns:xlink="http://www.w3.org/1999/xlink" x="0px" y="0px"
	 viewBox="0 0 230 80" style="enable-background:new 0 0 230 80;" xml:space="preserve">
<style type="text/css">
	.st0{fill-rule:evenodd;clip-rule:evenodd;fill:url(#SVGID_1_);}
	.st1{fill-rule:evenodd;clip-rule:evenodd;fill:#FFFFFF;}
</style>
<g>
	
		<linearGradient id="SVGID_1_" gradientUnits="userSpaceOnUse" x1="-5.3696" y1="116.2316" x2="-5.3696" y2="115.2316" gradientTransform="matrix(46 0 0 -46 270 5363.6519)">
		<stop  offset="0" style="stop-color:#FF840E"/>
		<stop  offset="8.431000e-02" style="stop-color:#FF710E"/>
		<stop  offset="0.7348" style="stop-color:#FF0000"/>
		<stop  offset="1" style="stop-color:#F10A00"/>
	</linearGradient>
	<path class="st0" d="M0,21.4v37.3C0,61,2,63,4.4,63h37.3c2.4,0,4.4-2,4.4-4.4V21.4c0-2.4-2-4.4-4.4-4.4H4.4C2,17,0,19,0,21.4z"/>
	<path class="st1" d="M12.3,54.6c1.9,1.1,5.6,2.1,9.2,2.1c8.7,0,12.8-4.6,12.8-9.9c0-4.7-2.8-7.6-8.7-9.8c-4.5-1.7-6.5-2.9-6.5-5.4
		c0-2,1.7-4,5.6-4c3.2,0,5.5,0.9,6.8,1.6l1.5-4.8c-1.8-0.9-4.4-1.7-8.1-1.7c-7.4,0-12,4.1-12,9.5c0,4.7,3.6,7.6,9.2,9.6
		c4.3,1.5,6,3,6,5.5c0,2.7-2.2,4.5-6.1,4.5c-3.2,0-6.2-1-8.2-2.1L12.3,54.6L12.3,54.6z"/>
	<path class="st1" d="M60.7,49c3.4,0,5.8-1.8,5.8-4.9c0-2.8-1.8-4-5.2-4.9c-3.1-0.8-3.8-1.3-3.8-2.6c0-1.1,1-2,2.6-2
		c1.5,0,2.9,0.6,4.4,1.7l1.5-2.2c-1.6-1.3-3.5-2.1-5.8-2.1c-3.2,0-5.5,2-5.5,4.8c0,3.1,1.9,4.1,5.4,5c3,0.7,3.6,1.3,3.6,2.5
		c0,1.3-1.1,2.1-2.9,2.1c-2,0-3.5-0.8-5.1-2.1L54,46.3C55.9,48.1,58.3,49,60.7,49z M69,49h3V37l4.9,7.7L82,37v12h3V32h-3.2l-4.9,8.1
		L72,32h-3V49z M86.7,49l7.1-17h2.6l7.1,17h-3l-1.6-4.2h-7.6L89.6,49C89.6,49,86.7,49,86.7,49z M92.3,42.2h5.6L95,35.6L92.3,42.2
		L92.3,42.2z M105.3,49V32h7.2c2,0,3.6,0.9,4.7,1.9c0.8,0.9,1.3,2.1,1.3,3.5c0,2.8-1.6,4.4-3.8,5L119,49h-3.3l-4-6h-3.5v6H105.3
		L105.3,49z M108.2,40.4h4.1c2,0,3.3-1.1,3.3-2.7v0c0-1.8-1.2-2.7-3.3-2.7h-4.1L108.2,40.4L108.2,40.4z M125,49h3V35h5v-3h-13v3h5
		L125,49L125,49z M140.4,49c3.4,0,5.8-1.8,5.8-4.9c0-2.8-1.8-4-5.2-4.9c-3.1-0.8-3.8-1.3-3.8-2.6c0-1.1,1-2,2.6-2
		c1.5,0,2.9,0.6,4.4,1.7l1.5-2.2c-1.6-1.3-3.5-2.1-5.9-2.1c-3.2,0-5.5,2-5.5,4.8c0,3.1,1.9,4.1,5.4,5c3,0.7,3.6,1.3,3.6,2.5
		c0,1.3-1.1,2.1-2.9,2.1c-2,0-3.5-0.8-5.1-2.1l-1.7,2.1C135.6,48.1,137.9,49,140.4,49L140.4,49z M156.1,49c3,0,4.9-1.1,6.5-2.9
		l-1.8-1.9c-1.4,1.3-2.6,2.1-4.6,2.1c-3.1,0-5.3-2.6-5.3-5.8c0-3.3,2.2-5.8,5.3-5.8c1.8,0,3.2,0.8,4.5,2l1.8-2.1
		c-1.5-1.5-3.3-2.6-6.3-2.6c-4.9,0-8.3,3.8-8.3,8.5C147.9,45.3,151.4,49,156.1,49L156.1,49z M165,49h3v-7.2h7V49h3V32h-3v7.1h-7V32
		h-3V49z M189,49c-4.9,0-8.4-3.8-8.4-8.5c0-4.7,3.5-8.5,8.4-8.5s8.4,3.8,8.4,8.5C197.5,45.1,194,49,189,49z M189.1,46.3
		c3.2,0,5.4-2.6,5.4-5.8v0c0-3.2-2.3-5.8-5.5-5.8s-5.4,2.6-5.4,5.8v0C183.6,43.7,185.9,46.3,189.1,46.3z M207.7,49
		c-4.9,0-8.4-3.8-8.4-8.5c0-4.7,3.5-8.5,8.4-8.5s8.4,3.8,8.4,8.5C216.1,45.1,212.6,49,207.7,49z M207.7,46.3c3.2,0,5.4-2.6,5.4-5.8
		v0c0-3.2-2.3-5.8-5.5-5.8s-5.4,2.6-5.4,5.8v0C202.3,43.7,204.5,46.3,207.7,46.3L207.7,46.3z M219,49h11v-3h-8V32h-3V49z"/>
</g>
</svg>
