<?xml version="1.0" encoding="UTF-8"?><svg xmlns="http://www.w3.org/2000/svg" width="230" height="80" viewBox="0 0 230 80"><title>logo_smartschool_230x80</title><defs><linearGradient id="a" x1="50%" x2="50%" y1="0%" y2="100%"><stop stop-color="#FF840E" offset="0%"/><stop stop-color="#FF710E" offset="8.431%"/><stop stop-color="#F00" offset="73.477%"/><stop stop-color="#F10A00" offset="100%"/></linearGradient></defs><g fill="none" fill-rule="evenodd"><path fill="url(#a)" d="M0 21.374v37.252C0 61.042 1.958 63 4.374 63h37.252C44.042 63 46 61.042 46 58.626V21.374C46 18.958 44.042 17 41.626 17H4.374C1.958 17 0 18.958 0 21.374z"/><path fill="#FFF" d="M12.324 54.65c1.86 1.123 5.576 2.1 9.192 2.1 8.69 0 12.808-4.592 12.808-9.917 0-4.738-2.813-7.62-8.69-9.77-4.52-1.71-6.48-2.882-6.48-5.422 0-1.95 1.66-3.95 5.577-3.95 3.17 0 5.53.93 6.78 1.57l1.46-4.833c-1.76-.88-4.42-1.66-8.08-1.66-7.38 0-12 4.055-12 9.477 0 4.74 3.57 7.62 9.19 9.575 4.27 1.514 5.98 2.98 5.98 5.47 0 2.69-2.21 4.495-6.13 4.495-3.16 0-6.23-.98-8.182-2.1l-1.406 4.98z"/><path fill="#262626" d="M60.723 48.953c3.385 0 5.756-1.83 5.756-4.907 0-2.77-1.78-4.016-5.18-4.86-3.09-.752-3.83-1.316-3.83-2.584 0-1.127.96-1.996 2.62-1.996 1.47 0 2.92.587 4.37 1.69l1.52-2.183c-1.635-1.338-3.5-2.066-5.85-2.066-3.2 0-5.5 1.95-5.5 4.767 0 3.076 1.933 4.11 5.363 4.954 2.99.704 3.636 1.338 3.636 2.512 0 1.292-1.105 2.114-2.855 2.114-2.003 0-3.546-.775-5.088-2.137L54 46.323c1.934 1.76 4.26 2.63 6.723 2.63zM69 49h3V37l4.856 7.68L82 37v12h3V32h-3.24l-4.9 8.054L71.952 32H69v17zm17.658 0l7.092-17h2.624l7.092 17h-2.993l-1.635-4.25h-7.62L89.558 49h-2.9zm5.595-6.81h5.55l-2.787-6.574-2.763 6.575zM105.347 49V32h7.184c2.03 0 3.62.892 4.66 1.925.85.893 1.34 2.114 1.34 3.546 0 2.75-1.59 4.37-3.842 5.03l4.35 6.51H115.7L111.74 43h-3.546v6h-2.83zm2.832-8.57h4.14c2.02 0 3.31-1.08 3.31-2.748v-.047c0-1.76-1.25-2.723-3.34-2.723h-4.12v5.518zM125 49h3V35h4.97v-3H120v3h5.003v14zm15.374-.047c3.384 0 5.756-1.83 5.756-4.907 0-2.77-1.773-4.016-5.18-4.86-3.086-.752-3.823-1.316-3.823-2.584 0-1.127.966-1.996 2.624-1.996 1.48 0 2.93.587 4.38 1.69l1.52-2.183c-1.63-1.338-3.5-2.066-5.85-2.066-3.2 0-5.5 1.95-5.5 4.767 0 3.076 1.94 4.11 5.37 4.954 2.995.704 3.64 1.338 3.64 2.512 0 1.292-1.103 2.114-2.853 2.114-2.003 0-3.546-.775-5.09-2.137l-1.703 2.066c1.936 1.76 4.26 2.63 6.725 2.63zM156.07 49c3.016 0 4.858-1.127 6.54-2.912l-1.82-1.878c-1.382 1.315-2.648 2.137-4.628 2.137-3.085 0-5.32-2.63-5.32-5.847 0-3.264 2.235-5.847 5.32-5.847 1.842 0 3.223.822 4.513 2.043l1.818-2.137c-1.542-1.51-3.338-2.56-6.308-2.56-4.88 0-8.312 3.82-8.312 8.5 0 4.76 3.5 8.5 8.197 8.5zm8.93 0h3v-7.21h7V49h3V32h-3v7.115h-7V32h-3v17zm24.007 0c-4.95 0-8.404-3.827-8.404-8.453 0-4.673 3.5-8.547 8.45-8.547 4.95 0 8.404 3.827 8.404 8.453 0 4.673-3.5 8.547-8.45 8.547zm.046-2.653c3.2 0 5.434-2.607 5.434-5.8V40.5c0-3.193-2.28-5.847-5.48-5.847-3.2 0-5.434 2.607-5.434 5.8v.047c0 3.193 2.28 5.847 5.48 5.847zM207.696 49c-4.95 0-8.404-3.827-8.404-8.453 0-4.673 3.5-8.547 8.45-8.547 4.95 0 8.404 3.827 8.404 8.453 0 4.673-3.5 8.547-8.45 8.547zm.046-2.653c3.2 0 5.434-2.607 5.434-5.8V40.5c0-3.193-2.28-5.847-5.48-5.847-3.2 0-5.433 2.607-5.433 5.8v.047c0 3.193 2.28 5.847 5.48 5.847zM219 49h11v-3h-8V32h-3v17z"/></g></svg>