<?xml version="1.0" encoding="utf-8"?>
<!-- Generator: Adobe Illustrator 25.4.1, SVG Export Plug-In . SVG Version: 6.00 Build 0)  -->
<svg version="1.1" id="Laag_1" xmlns="http://www.w3.org/2000/svg" xmlns:xlink="http://www.w3.org/1999/xlink" x="0px" y="0px"
	 viewBox="0 0 16 16" style="enable-background:new 0 0 16 16;" xml:space="preserve">
<style type="text/css">
	.st0{fill-rule:evenodd;clip-rule:evenodd;fill:url(#SVGID_1_);}
	.st1{fill-rule:evenodd;clip-rule:evenodd;fill:#FFFFFF;}
</style>
<g>
	
		<linearGradient id="SVGID_1_" gradientUnits="userSpaceOnUse" x1="-1458.4131" y1="1476.9565" x2="-1458.4131" y2="1476.6086" gradientTransform="matrix(46 0 0 -46 67095 67940)">
		<stop  offset="0" style="stop-color:#FF840E"/>
		<stop  offset="8.431000e-02" style="stop-color:#FF710E"/>
		<stop  offset="0.7348" style="stop-color:#FF0000"/>
		<stop  offset="1" style="stop-color:#F10A00"/>
	</linearGradient>
	<path class="st0" d="M0,1.5v13C0,15.3,0.7,16,1.5,16h13c0.8,0,1.5-0.7,1.5-1.5v-13C16,0.7,15.3,0,14.5,0h-13C0.7,0,0,0.7,0,1.5z"/>
	<path class="st1" d="M4.3,13.1c0.6,0.4,1.9,0.7,3.2,0.7c3,0,4.5-1.6,4.5-3.4c0-1.6-1-2.7-3-3.4C7.3,6.4,6.7,6,6.7,5.1
		c0-0.7,0.6-1.4,1.9-1.4c1.1,0,1.9,0.3,2.4,0.5l0.5-1.7C10.9,2.3,9.9,2,8.7,2C6.1,2,4.5,3.4,4.5,5.3C4.5,7,5.7,8,7.7,8.6
		c1.5,0.5,2.1,1,2.1,1.9c0,0.9-0.8,1.6-2.1,1.6c-1.1,0-2.2-0.3-2.8-0.7L4.3,13.1L4.3,13.1z"/>
</g>
</svg>
