<?xml version="1.0" encoding="utf-8"?>
<!-- Generator: Adobe Illustrator 25.0.0, SVG Export Plug-In . SVG Version: 6.00 Build 0)  -->
<svg version="1.1" id="Laag_1" xmlns="http://www.w3.org/2000/svg" xmlns:xlink="http://www.w3.org/1999/xlink" x="0px" y="0px"
	 viewBox="0 0 16 16" style="enable-background:new 0 0 16 16;" xml:space="preserve">
<style type="text/css">
	.st0{fill:#ECECEC;}
</style>
<path class="st0" d="M7.1,12.4C3.7,12.4,1,9.6,1,6.2C1,2.8,3.7,0,7.1,0c3.4,0,6.1,2.8,6.1,6.2c0,1.7-0.7,3.2-1.8,4.4l3.8,4.4
	c0.2,0.2,0.2,0.5,0,0.7c-0.2,0.2-0.4,0.2-0.6,0l0,0l-3.8-4.5C9.7,11.9,8.4,12.4,7.1,12.4L7.1,12.4z M2,6.2c0,2.9,2.3,5.2,5.1,5.2
	c2.8,0,5.1-2.3,5.1-5.2C12.2,3.3,9.9,1,7.1,1C4.3,1,2,3.3,2,6.2z"/>
</svg>
