<svg id="Laag_1" data-name="Laag 1" xmlns="http://www.w3.org/2000/svg" width="16" height="16" viewBox="0 0 16 16"><defs><style>.cls-1{fill:#ececec;}</style></defs><path class="cls-1" d="M7.1,12.4A6.146,6.146,0,0,1,1,6.2,6.146,6.146,0,0,1,7.1,0a6.146,6.146,0,0,1,6.1,6.2,6.4653,6.4653,0,0,1-1.8,4.4L15.2,15a.4833.4833,0,0,1,0,.7.375.375,0,0,1-.6,0h0l-3.8-4.5a7.0681,7.0681,0,0,1-3.7,1.2ZM2,6.2a5.1435,5.1435,0,0,0,5.1,5.2,5.1435,5.1435,0,0,0,5.1-5.2A5.1435,5.1435,0,0,0,7.1,1,5.1435,5.1435,0,0,0,2,6.2Z"/></svg>