<svg id="Laag_1" data-name="Laag 1" xmlns="http://www.w3.org/2000/svg" xmlns:xlink="http://www.w3.org/1999/xlink" width="1440" height="1002" viewBox="0 0 1440 1002"><defs><style>.cls-1{fill:url(#Naamloos_verloop_25);}.cls-2{fill:#052d51;}.cls-3{fill:#0b3860;}.cls-4{opacity:0.6;}.cls-5{fill:#0c3c72;}.cls-6{fill:#fff;}.cls-7{fill:#033751;}.cls-8{fill:#041c2e;}.cls-9{fill:#061735;}.cls-10{fill:#02204c;}.cls-11{fill:#154375;}.cls-12{fill:#021930;}.cls-13{fill:#01284b;}.cls-14{fill:#2365ad;}.cls-15{fill:#093b71;}.cls-16{fill:#011f42;}.cls-17{fill:#00417c;}.cls-18{fill:#002756;}.cls-19{fill:#033f7f;}.cls-20{fill:#013b80;}.cls-21{fill:#2365ac;}.cls-22{fill:#003d85;}.cls-23{fill:#164c81;}.cls-24{fill:#001f44;}.cls-25{fill:#053670;}.cls-26{fill:#012043;}.cls-27{fill:#002048;}.cls-28{fill:#073c79;}.cls-29{fill:#0c3e75;}.cls-30{fill:#063984;}.cls-31{fill:#022347;}.cls-32{fill:#2b68b3;}.cls-33{fill:#0a3d77;}.cls-34{fill:#01254d;}.cls-35{fill:#0d3e7a;}.cls-36{fill:#134988;}.cls-37{fill:#0c3e77;}.cls-38{fill:#002246;}.cls-39{fill:#1f67c1;}.cls-40{fill:#013c7e;}.cls-41{fill:#002c6b;}.cls-42{fill:#00327e;}.cls-43{fill:#2068af;}.cls-44{fill:#0f4a84;}.cls-45{fill:#06284a;}.cls-46{fill:#003c68;}.cls-47{fill:#00427c;}.cls-48{fill:#0a3f7a;}.cls-49{fill:#0d4482;}</style><linearGradient id="Naamloos_verloop_25" x1="446.2381" y1="-208.0843" x2="993.7619" y2="966.0843" gradientUnits="userSpaceOnUse"><stop offset="0" stop-color="#462ab0"/><stop offset="1" stop-color="#1f6cc3"/></linearGradient></defs><image width="1440" height="1002" xlink:href="E:%5CDOWNLOADS%5C2021-05-01_spring_smartschool_city_nl_1440.jpg"/><rect class="cls-1" width="1440" height="758"/><rect class="cls-2" y="754" width="1440" height="248"/><polygon class="cls-3" points="0 783.333 729 783.333 0 824.667 -0.5 859.333 1293 873 31.669 1002 1440 892.667 1440 847.333 309 840.667 1440 770 1440 754 0 754 0 783.333"/><g id="clouds" class="cls-4"><circle class="cls-5" cx="275" cy="128.5" r="103.5"/><path class="cls-5" d="M249.4656,211.9723Q249.5,210.99,249.5,210a55.5,55.5,0,0,0-111,0q0,.9957.0348,1.9831l110.9308-.0108"/><circle class="cls-5" cx="344" cy="191" r="36.5"/><rect class="cls-5" x="115" y="212" width="299" height="24" rx="12"/><circle class="cls-5" cx="6.9358" cy="320.296" r="73.296"/><circle class="cls-5" cx="55.7998" cy="364.5569" r="25.8484"/><rect class="cls-5" x="-106.372" y="379.4286" width="211.7441" height="16.9962" rx="8.4981"/><circle class="cls-5" cx="1318.4214" cy="215.1856" r="107.6538"/><path class="cls-5" d="M1291.8622,302.008q.0357-1.0214.0358-2.0515a57.7275,57.7275,0,0,0-115.4549,0q0,1.0358.0362,2.0627l115.3829-.0112"/><circle class="cls-5" cx="1390.1906" cy="280.194" r="37.9649"/><rect class="cls-5" x="1152" y="302.0368" width="311" height="24.9632" rx="12"/><circle class="cls-5" cx="301.9134" cy="442.4366" r="47.7192"/><path class="cls-5" d="M290.1406,480.9219q.0157-.4527.0158-.9093a25.5886,25.5886,0,1,0-51.1771,0q0,.459.0161.9143l51.1452-.005"/><circle class="cls-5" cx="333.7261" cy="471.2525" r="16.8285"/><rect class="cls-5" x="228.1445" y="480.9347" width="137.8555" height="11.0653" rx="5.5327"/><circle class="cls-5" cx="901.5936" cy="348.5047" r="51.5047"/><path class="cls-5" d="M888.8869,390.0431q.0171-.4887.0171-.9815a27.6185,27.6185,0,1,0-55.2369,0q0,.4955.0173.9868l55.2025-.0053"/><circle class="cls-5" cx="935.9301" cy="379.6066" r="18.1635"/><rect class="cls-5" x="821.9727" y="390.0569" width="148.7915" height="11.9431" rx="5.5327"/><circle class="cls-5" cx="710.8566" cy="481.5261" r="24.5261"/><path class="cls-5" d="M704.8058,501.3062q.0081-.2327.0082-.4673a13.1517,13.1517,0,1,0-26.3033,0q0,.2359.0082.47l26.2869-.0026"/><circle class="cls-5" cx="727.2073" cy="496.3365" r="8.6493"/><rect class="cls-5" x="672.9419" y="501.3128" width="70.8531" height="5.6872" rx="2.8436"/><circle class="cls-5" cx="899.0533" cy="3.8934" r="134.8934"/><path class="cls-5" d="M865.7739,112.6843q.0777-2.226.02-4.4847a72.3344,72.3344,0,0,0-144.6435,1.9141q0,1.2978.0453,2.5846l144.5781-.014"/><circle class="cls-5" cx="988.9822" cy="85.3507" r="47.5711"/><rect class="cls-5" x="690.5225" y="112.7204" width="389.6919" height="31.2796" rx="15.6398"/><circle class="cls-5" cx="558.7654" cy="233.6161" r="71.6161"/><path class="cls-5" d="M541.0971,291.3742q.0237-.6795.0238-1.3647a38.4029,38.4029,0,1,0-76.8057,0q0,.6889.024,1.3721l76.7579-.0074"/><circle class="cls-5" cx="606.5095" cy="276.8626" r="25.2559"/><rect class="cls-5" x="448.0545" y="291.3934" width="206.891" height="16.6066" rx="8.3033"/><circle class="cls-5" cx="1138.7654" cy="426.6161" r="71.6161"/><path class="cls-5" d="M1121.0971,484.3742q.0237-.6795.0238-1.3647a38.4029,38.4029,0,1,0-76.8057,0q0,.6889.024,1.3721l76.7579-.0074"/><circle class="cls-5" cx="1186.5095" cy="469.8626" r="25.2559"/><rect class="cls-5" x="1028.0545" y="484.3934" width="206.891" height="16.6066" rx="8.3033"/></g><path class="cls-6" d="M363.5122,487.4668a7.7432,7.7432,0,0,1-1.4985.15q-4.4964,0-11.2412-3.1475a115.8388,115.8388,0,0,1-11.3907-5.9951,11.9575,11.9575,0,0,1-4.9463-7.0444q-4.9459-15.137-7.644-50.36-2.6974-35.2192-3.8218-75.7641-1.1243-40.5418-1.124-71.418V262.4971q0-20.6836.45-25.63a15.8968,15.8968,0,0,1,.8242-5.17,2.9443,2.9443,0,0,1,1.7237-1.8736,8.1568,8.1568,0,0,1,2.248-.3h.45q1.9461,0,6.8945,2.2481a90.7727,90.7727,0,0,1,11.2413,6.2949,17.587,17.587,0,0,1,6.7446,9.8174,29.814,29.814,0,0,1,.749,4.1216v1.7983q-.6006,25.4824-.5991,50.81,0,22.3344.749,57.3291.7485,34.998,6.1455,83.708.449,3.5969,2.398,5.0957a1.4359,1.4359,0,0,0,1.0488.45q1.6479,0,4.0469-3.1475a391.0405,391.0405,0,0,0,26.5288-63.3242q11.3885-34.9944,19.41-68.72,8.0165-33.7228,13.1143-58.3032a129.1876,129.1876,0,0,0,1.6489-14.2388q.1473-3.2945.45-6.5947a14.2706,14.2706,0,0,1,.899-5.17,3.1551,3.1551,0,0,1,1.7988-1.8736,7.6157,7.6157,0,0,1,2.0981-.3h.8995q4.0466,0,15.5874,7.1944a15.74,15.74,0,0,1,4.5712,4.7212,18.4065,18.4065,0,0,1,2.1734,5.0957,29.8539,29.8539,0,0,1,.75,4.1215v1.649q-4.9461,41.6689-5.8452,92.626-.1517,8.3949-.15,16.6362a780.33,780.33,0,0,0,4.4961,84.083q.45,3.5969,2.3984,5.0957a1.4359,1.4359,0,0,0,1.0488.45q1.6481,0,4.0469-3.1475,13.7879-19.9314,29.2266-59.8022,15.435-39.8664,28.852-82.8086,13.4121-42.9405,21.3579-72.0176l-.3,1.499a10.3538,10.3538,0,0,1,6.4449-6.145,17.2038,17.2038,0,0,1,6.145-1.1992,23.412,23.412,0,0,1,4.0468.5249,3.1106,3.1106,0,0,1,2.8477,3.0723,2.8109,2.8109,0,0,0-.15.8994.1328.1328,0,0,0-.15.15q-27.13,98.921-57.8535,176.2588-11.8417,29.0793-22.2573,49.5356-10.4187,20.458-20.3086,28.7017l-.3.3a1.6351,1.6351,0,0,0-.45.3.8765.8765,0,0,1-.6.15,7.7424,7.7424,0,0,1-1.4985.15q-4.497,0-11.2412-3.1475a115.85,115.85,0,0,1-11.3911-5.9951,11.9563,11.9563,0,0,1-4.9458-7.0444q-3.8994-12.4388-6.4448-42.7158-2.55-30.2733-3.897-62.95-4.7981,17.5364-13.939,42.416a470.7832,470.7832,0,0,1-20.1587,47.0625q-11.0163,22.1835-21.0581,31.4746v.15q-.45.2988-.6743.45A1.2393,1.2393,0,0,1,363.5122,487.4668Z"/><path class="cls-6" d="M644.2378,391.0938a7.7336,7.7336,0,0,1,2.9976,6.5947,20.3312,20.3312,0,0,1-1.1993,6.2954q-10.6436,33.575-29.3764,50.3594-18.7376,16.7878-38.9688,18.5854-3,.2981-5.8452.2993a50.257,50.257,0,0,1-30.6509-10.4165q-14.0156-10.415-17.4609-32.7485a73.9907,73.9907,0,0,1-.6-9.4429q0-17.9853,8.3935-41.8164t27.8775-42.7158q13.3382-11.9891,28.4775-16.0371a56.1652,56.1652,0,0,1,14.0884-1.9483,40.11,40.11,0,0,1,13.04,2.0982q15.8856,6.5969,17.5362,22.6318.1479,2.1006.15,4.3467,0,14.09-9.0679,31.4746-9.07,17.3885-26.978,31.85a84.7954,84.7954,0,0,1-40.8423,18.0606q1.6472,10.7914,7.4189,17.686,5.768,6.8958,16.2618,7.1938a36.0242,36.0242,0,0,0,24.8051-9.9667,81.9179,81.9179,0,0,0,17.1612-23.606,225.5182,225.5182,0,0,0,11.3911-27.1284q1.7988-5.2449,3.4472-5.6953h.3q1.6472,0,5.2456,2.5478Q642.8867,390.1958,644.2378,391.0938Zm-87.83,9.7421a38.2365,38.2365,0,0,0,21.4331-6.7441,80.1986,80.1986,0,0,0,18.1353-16.562,87.5484,87.5484,0,0,0,12.2905-19.709q4.0467-9.2914,4.0464-16.0376,0-.449-.2246-4.1216-.2248-3.6708-6.52-4.5713h-.899q-9.7447,0-18.2856,8.8428a95.0988,95.0988,0,0,0-15.1377,21.0586,193.14,193.14,0,0,0-10.1919,21.5073A96.0148,96.0148,0,0,0,556.4077,400.8359Z"/><path class="cls-6" d="M673.7642,242.7129a20.604,20.604,0,0,1,2.3232-5.1709,4.3562,4.3562,0,0,1,2.3232-1.8735,4.4083,4.4083,0,0,1,1.6485-.3h.45a.61.61,0,0,0,.45-.15q1.9461,0,6.07,2.3232a59.47,59.47,0,0,1,8.9175,6.37,10.37,10.37,0,0,1,2.998,4.6465,16.921,16.921,0,0,1,.5992,4.3467q0,.3018-.0747,1.7983a24.9318,24.9318,0,0,1-.3746,3.1475l-.45,1.6489q-10.3417,32.6756-26.4541,93.15t-21.8076,98.396a5.2713,5.2713,0,0,0,1.6489,3.7471,1.9872,1.9872,0,0,0,1.1993.45,3.8319,3.8319,0,0,0,2.248-.8994q4.4964-4.7952,10.042-16.4117,5.543-11.6132,10.3418-23.9062,4.7944-12.2871,7.0439-19.0347,1.6481-4.4962,3.2974-4.646h.15q1.7988,0,5.2461,2.5479l2.3979,1.3491a7.99,7.99,0,0,1,3.1475,6.7441,19.9827,19.9827,0,0,1-1.0493,5.9956,336.0946,336.0946,0,0,1-13.7886,33.4229,116.3163,116.3163,0,0,1-12.59,22.1074q-7.1939,9.8181-17.3858,11.6157a23.4441,23.4441,0,0,1-2.5478.15,25.6338,25.6338,0,0,1-19.6343-8.8427,29.267,29.267,0,0,1-8.3935-20.8335v-1.9483q2.2485-22.0326,13.789-66.8466t23.3814-84.9068Q670.7645,250.8074,673.7642,242.7129Z"/><path class="cls-6" d="M722.1758,242.8628a17.9991,17.9991,0,0,1,2.1728-5.1709,4.5074,4.5074,0,0,1,2.1729-1.8735,5.26,5.26,0,0,1,1.6494-.3H729.22q1.9469,0,6.07,2.248a60.2836,60.2836,0,0,1,9.0674,6.2949,10.3673,10.3673,0,0,1,2.9981,4.6465,13.735,13.735,0,0,1,.749,4.3467c0,.2993-.0254.9248-.0752,1.873a24.64,24.64,0,0,1-.374,3.0728l-.45,1.6489q-4.4957,14.8374-12.6651,43.1651t-16.4116,59.2026l-.45,1.499q-.449,1.6509-1.0488,3.6719-.6006,2.0237-1.0493,3.6724a152.7479,152.7479,0,0,1,28.3276-34.3975Q760.5444,321.4,769.5371,320.65a22.69,22.69,0,0,1,17.9863,10.9414q5.0932,8.3951,5.0957,15.7373a26.1275,26.1275,0,0,1-.15,2.8477v.15q0,5.9962-9.7422,23.6059-9.7441,17.6133-40.3174,42.3413a82.7778,82.7778,0,0,0,10.8662,18.96,63.1332,63.1332,0,0,0,16.1123,15.3623,3.0655,3.0655,0,0,0,3.9717-.6743,13.159,13.159,0,0,0,2.623-3.6719,217.248,217.248,0,0,0,11.541-23.7563q5.8447-13.8612,10.3418-26.4537,1.6466-5.2448,3.4473-5.6953h.2988q1.7988,0,5.2461,2.398a24.5865,24.5865,0,0,0,2.3985,1.499,7.5918,7.5918,0,0,1,3.1474,6.5942,18.9977,18.9977,0,0,1-1.1992,6.1455,361.2936,361.2936,0,0,1-13.9385,33.4229,122.47,122.47,0,0,1-12.74,22.1074q-7.1938,9.8181-17.3858,11.6157-1.6508.148-3.4472.15-12.2916,0-23.5313-9.2924a84.1976,84.1976,0,0,1-19.41-23.6812q-8.1709-14.3884-11.0161-26.5288v-.45a11.1279,11.1279,0,0,1,.8242-3.5972,9.7163,9.7163,0,0,1,2.1733-3.5967q2.8455-2.2485,6.5947-5.0961a208.7057,208.7057,0,0,0,26.5288-23.7559q14.3877-14.9121,19.9336-36.4961-21.2841,14.09-40.0927,42.6411-18.8109,28.5521-22.8565,46.9873a226.0515,226.0515,0,0,0-4.0469,33.4234l-.75,6.8945a2.6521,2.6521,0,0,1-1.9482,1.3486,7.0674,7.0674,0,0,1-1.3491.15q-4.1976,0-9.8921-3.1474a78.4535,78.4535,0,0,1-9.4424-5.9952,8.9712,8.9712,0,0,1-2.8477-7.0444v-1.0488q0-21.1334,10.8663-68.4951,10.8654-47.36,23.0815-91.4273Q718.7274,252.0052,722.1758,242.8628Z"/><path class="cls-6" d="M935.1543,361.7173a6.9913,6.9913,0,0,1,2.6982,5.8457,11.7884,11.7884,0,0,1-.3,2.5478q-8.2455,18.7376-19.0351,29.751-10.7916,11.0164-22.6319,15.8125-11.392,27.5793-26.2285,41.0669a72.1241,72.1241,0,0,1-19.6347,12.59,47.8835,47.8835,0,0,1-19.334,4.3462q-1.6524,0-3.2979-.15-18.2871-1.6509-30.126-24.13a53.6743,53.6743,0,0,1-4.6464-22.7818q0-4.3453,1.35-15.7378,1.3491-11.3885,7.4189-29.601,6.07-18.21,11.6153-31.85,2.997-5.9927,5.9951-8.0932a9.1177,9.1177,0,0,1,4.9463-1.6489,15.5428,15.5428,0,0,1,1.874.2251,8.2593,8.2593,0,0,1,3.0722,1.2739,22.53,22.53,0,0,1,2.5479,1.6484q10.1908-16.0356,26.6787-20.5337a37.463,37.463,0,0,1,9.8916-1.3486q11.09,0,21.583,7.1943a42.1149,42.1149,0,0,1,15.8877,27.5777,83.8007,83.8007,0,0,1,.8994,12.44,101.7326,101.7326,0,0,1-2.998,23.8311q10.94-9.4425,19.4844-28.627,2.3964-5.8455,4.1962-6.2949h.3q1.7988,0,5.9951,3.2974Q934.104,360.9692,935.1543,361.7173Zm-76.5889,83.1836q9.1407-8.2413,17.836-25.33h-.6a53.5494,53.5494,0,0,1-28.0274-7.7188A51.14,51.14,0,0,1,827.99,390.3447l-.6,2.398q-.7515,2.55-1.499,5.2456-.3018.8994-1.5732,7.2695a77.6662,77.6662,0,0,0-1.2745,15.063v.749a42.1274,42.1274,0,0,0,3.2227,16.1123q3.2212,7.8684,12.0654,11.9156a19.9,19.9,0,0,0,7.794,1.7983,23.9888,23.9888,0,0,0,4.4209-.6Q853.4692,449.6994,858.5654,444.9009Zm24.8809-42.416a139.7908,139.7908,0,0,0,5.6953-21.7325,71.7321,71.7321,0,0,0,1.3486-13.4892,85.9031,85.9031,0,0,0-1.1992-12.6651q-1.2012-7.7175-9.4424-13.414a15.4237,15.4237,0,0,0-8.3935-2.6978q-4.3478,0-10.9405,4.2715-6.5976,4.2716-10.4921,22.5567a51.8863,51.8863,0,0,0-.7491,8.5434q0,12.2909,6.8946,20.6831,7.0429,8.6946,19.4843,8.6934A42.7079,42.7079,0,0,0,883.4463,402.4849Z"/><path class="cls-6" d="M989.7109,368.0127a563.2956,563.2956,0,0,0-40.6171,70.8931l-2.9971,6.5947q-5.5475,11.9927-10.6416,23.831a10.031,10.031,0,0,1-.9746,1.7984,2.2092,2.2092,0,0,1-1.5733.8994,7.1279,7.1279,0,0,1-1.35.15q-4.1967,0-9.8916-3.1475a67.103,67.103,0,0,1-9.4424-6.145q-2.8461-2.3957-2.8476-7.0444-.1481-2.9964-.15-6.2949,0-17.3856,4.3467-42.4912,4.3461-25.1023,10.3418-48.4112,5.9927-23.3041,8.8427-30.95a18.0108,18.0108,0,0,1,2.1739-5.1709,4.42,4.42,0,0,1,2.248-1.8735,8.4419,8.4419,0,0,1,2.1729-.3h.45q1.9452,0,6.0693,2.248a60.3393,60.3393,0,0,1,9.0684,6.295,11.68,11.68,0,0,1,3.1474,4.6464,16.948,16.948,0,0,1,.6,4.3467V339.76a11.7031,11.7031,0,0,1-.45,3.0722l-.4492,1.6489a434.6429,434.6429,0,0,0-17.0869,74.94q8.2412-16.1873,16.7871-30.7256,23.2295-38.8161,43.0156-62.8a21.2362,21.2362,0,0,0,1.6485-2.398,9.2711,9.2711,0,0,1,2.1738-2.4731,6.5669,6.5669,0,0,1,3.5215-.6743q1.7988,0,5.9951,2.248a53.3511,53.3511,0,0,1,8.9932,6.295,9.9573,9.9573,0,0,1,3.1474,4.6464,14.1629,14.1629,0,0,1,.749,4.4966q0,.45-.0742,1.7984a24.9477,24.9477,0,0,1-.375,2.9975l-.45,1.6489a432.7265,432.7265,0,0,0-17.0859,74.34q8.0933-15.7375,16.4873-29.9761a629.6021,629.6021,0,0,1,41.2168-60.102l4.4961-6.295a5.4,5.4,0,0,1,4.3467-2.248q1.9452,0,6.07,2.0234a47.39,47.39,0,0,1,9.5176,6.6695,9.9231,9.9231,0,0,1,3.1474,4.7211,16.7065,16.7065,0,0,1,.6738,5.0962,28.93,28.93,0,0,1-.374,4.1216l-.45,1.6489q-8.3951,27.5787-14.3886,52.7579a350.95,350.95,0,0,0-8.2432,51.5586v1.0493a15.5658,15.5658,0,0,0,.3,2.6977,4.2065,4.2065,0,0,0,1.3486,2.5479,1.6024,1.6024,0,0,0,.8994.3,3.5365,3.5365,0,0,0,2.2481-1.0493q4.3463-4.4964,9.8174-15.5874T1096.2012,415.6q4.8691-12.0638,7.4189-19.56,1.7988-5.3956,3.4473-5.6953h.3q1.7988,0,5.2461,2.5479c.6972.4,1.499.85,2.3974,1.3491a7.5892,7.5892,0,0,1,3.1475,6.5942,19.0207,19.0207,0,0,1-1.1982,6.1455q-6.8965,18.8849-13.7891,33.4229a119.7956,119.7956,0,0,1-12.8154,22.1074q-7.2715,9.8181-17.461,11.6157a19.5789,19.5789,0,0,1-2.3974.15q-11.691,0-19.7842-9.1425a32.0985,32.0985,0,0,1-8.3936-21.7325v-1.1992a395.4792,395.4792,0,0,1,13.3389-71.3427q-8.8447,13.19-18.585,29.9008-9.7442,16.7139-16.9365,31.4-6.5961,14.3885-11.84,26.229L1002.9,470.53a2.6122,2.6122,0,0,1-1.9483,1.499,7.11,7.11,0,0,1-1.3486.15q-4.1982,0-9.8926-3.1475a76.3009,76.3009,0,0,1-9.5918-6.145,6.3153,6.3153,0,0,1-2.0986-2.9975,16.1117,16.1117,0,0,1-.749-4.0469q-.1509-2.8455-.15-5.6958,0-15.4351,3.5977-37.62Q984.3164,390.3469,989.7109,368.0127Z"/><path class="cls-7" d="M703.6764,515c-25.3118.57-83.2634,11.7834-98.7862,14.87a5.9993,5.9993,0,0,0-4.8387-4.7721c1.179-5.833.416-13.9728.416-13.9728-4.1918-16.3264-45.59-55.2979-59.64-68.1619a1.2731,1.2731,0,0,0-1.9861,1.5374c11.535,22.2343,46.49,68.56,56.5368,81.7244a5.9906,5.9906,0,0,0-1.647,7.6457,64.4043,64.4043,0,0,0-10.4085,5.9947c-11.9571,11.8806-24.6058,67.3116-28.5859,85.9411a1.273,1.273,0,0,0,2.3313.9343c11.865-18.8676,30.791-63.383,39.2332-83.7656l-1.8133,88.076V636H604.5l-2.4953-99.8121a6.0209,6.0209,0,0,0,2.0524-1.9679c4.6847,3.7383,12.6634,6.7672,12.6634,6.7672,16.5039,3.4267,69.7243-16.5775,87.4615-23.5267A1.273,1.273,0,0,0,703.6764,515Z"/><path class="cls-8" d="M613.7438,602.7648l29-2.4857A3,3,0,0,1,646,603.2681v93.0652a3,3,0,0,1-3,3H614a3,3,0,0,1-3-3V605.7539A3,3,0,0,1,613.7438,602.7648Z"/><rect class="cls-9" x="679" y="655" width="32" height="44" rx="1.2407"/><rect class="cls-10" x="907" y="599" width="37" height="46" rx="1.2407"/><path class="cls-10" d="M802.4833,609.0494l27.1291.9043A1.4355,1.4355,0,0,1,831,611.3884V630h11.8979a1.4354,1.4354,0,0,1,1.4354,1.4355v27.1672a1.4351,1.4351,0,0,1-.32.9035L817.2461,692.55a1.4355,1.4355,0,0,1-2.46-.4l-18.2938-48.8353a1.4355,1.4355,0,0,1,.8111-1.8364l2.794-1.1176A1.4355,1.4355,0,0,0,801,639.0281v-28.544A1.4355,1.4355,0,0,1,802.4833,609.0494Z"/><path class="cls-11" d="M791.5733,627.9427l-17.3857,16.9027A3.8283,3.8283,0,0,0,773,647.59V669.936a3.9058,3.9058,0,0,0,1.8286,3.257l20.7873,13.5619a4.5825,4.5825,0,0,0,5.9715-.8622l7.169-8.8041q.0721-.0885.1389-.1808l1.3769-1.9023a3.77,3.77,0,0,0,.7278-2.214V656.1168a3.7582,3.7582,0,0,0-.6293-2.0714L793.2745,628.11A1.1313,1.1313,0,0,0,791.5733,627.9427Z"/><path class="cls-2" d="M743.2832,688.1149l7.3444-22.951a1.2763,1.2763,0,0,1,1.5514-.8424l31.6365,8.6282a1.2768,1.2768,0,0,0,.3757.0443l30.5723-.9554a1.2764,1.2764,0,0,1,1.3137,1.1961l1.9,30.403a1.277,1.277,0,0,1-.1488.6823l-14.142,26.3983a1.2763,1.2763,0,0,1-1.8685.4347l-58.0628-41.6117A1.2763,1.2763,0,0,1,743.2832,688.1149Z"/><path class="cls-12" d="M644,641h17.2407a1.0926,1.0926,0,0,1,1.0926,1.0926V689.5a3,3,0,0,1-3,3H644a3,3,0,0,1-3-3V644A3,3,0,0,1,644,641Z"/><path id="bridge" class="cls-13" d="M333,683H321V662H309v21H246V662h-8v21H208V669.0486C275.8683,658.4431,315.5,603.6152,315.5,593l-6.999-.0322c-.2261,3.1621-10.3775,20.6787-32.3125,38.2431-18.585,14.8809-49.49,32.62-91.1822,32.6221-37.6059-.1689-68.45-19.8447-87.705-36.3213A210.4284,210.4284,0,0,1,69,597.9507V572H53v25.936c-8.6323,11.0112-27.8785,32.9454-54.7446,48.4009-20.0235,11.5186-40.6377,17.4053-61.271,17.4961l.0312,7c21.8628-.0967,43.6411-6.2969,64.73-18.4277A177.9946,177.9946,0,0,0,22,638.7593V663H32V630.4706a215.6792,215.6792,0,0,0,21-21.4035V739H46v11H39v4H82v-4H76V739H69V698H309v14h12V698h12ZM69,683V609.0364A218.0909,218.0909,0,0,0,90,630.43V680h9V637.9517c21.0083,16.5308,43.4292,27.0569,66,31.0543V683Zm103,0V670.0334a116.1382,116.1382,0,0,0,12.9844.8H185a149.44,149.44,0,0,0,16-.8631V683Z"/><path class="cls-14" d="M313.4047,700.5414a15.6283,15.6283,0,0,0,1.44-6.5414,16.1807,16.1807,0,0,0-16.3555-16,16.671,16.671,0,0,0-4.4315.6106A16.3671,16.3671,0,0,0,279.0667,669a16.5813,16.5813,0,0,0-6.6868,1.4084A15.3516,15.3516,0,0,0,258.6222,662a15.1693,15.1693,0,0,0-15.3333,15,14.669,14.669,0,0,0,.4924,3.7111A22.0059,22.0059,0,0,0,230,701c0,19.8907,6.9186,21.9206,16.3573,22.0333A16.18,16.18,0,0,0,262.7111,739a16.4275,16.4275,0,0,0,13.66-7.2113,16.5089,16.5089,0,0,0,27.72-3.0166,15.6945,15.6945,0,0,0,2.5756.2279A15.1694,15.1694,0,0,0,322,714,14.9616,14.9616,0,0,0,313.4047,700.5414Z"/><rect class="cls-15" y="747" width="150" height="7"/><rect class="cls-15" x="150" y="711" width="183" height="43"/><rect class="cls-16" x="158" y="719.7955" width="15" height="34.2045"/><rect class="cls-16" x="180" y="719.7955" width="15" height="34.2045"/><rect class="cls-16" x="201" y="719.7955" width="15" height="34.2045"/><rect class="cls-16" x="223" y="719.7955" width="15" height="34.2045"/><rect class="cls-16" x="245" y="719.7955" width="15" height="34.2045"/><rect class="cls-16" x="320" y="719.7955" width="13" height="34.2045"/><path class="cls-17" d="M1208.3264,732.3177V742.43l5.0009-10.9891,4.3656-8.37,7.9831,3.093-3.4213,6.1654S1209.9633,746.2677,1209.8366,754h-15.7127s-.38-23.1969-1.5206-29.3827,16.5363-5.3267,16.5363-5.3267Z"/><path class="cls-18" d="M1270.1042,703.8056a30.7639,30.7639,0,0,0-8.6823-21.44,30.7549,30.7549,0,0,0-26.4175-38.1938,20.3425,20.3425,0,0,0-5.8058-5.1294,20.244,20.244,0,0,0-32.3-19.7882A30.8144,30.8144,0,0,0,1155.337,655.75a30.6738,30.6738,0,0,0-11.515,33.0849,31.8194,31.8194,0,0,0,38.0686,48.7907,30.5594,30.5594,0,0,0,23.8963.8169,31.7677,31.7677,0,0,0,48.0273-7.4161A30.8779,30.8779,0,0,0,1270.1042,703.8056Z"/><g id="trees_left"><path class="cls-19" d="M22.5551,647.2639a26.0072,26.0072,0,0,0,1.961-3.836A25.8552,25.8552,0,0,0,26.5,633.5a26,26,0,0,0-52,0,25.89,25.89,0,0,0,6.2076,16.8507A38.4329,38.4329,0,0,0-34.5,681a38.5019,38.5019,0,0,0,74.785,12.88A38.4235,38.4235,0,0,0,42.5,681,38.4862,38.4862,0,0,0,22.5551,647.2639Z"/><path class="cls-20" d="M50,739V626.1481L13.4436,736.3236A2.0354,2.0354,0,0,0,15.3754,739Z"/><path class="cls-21" d="M50,739V626.1481L86.5564,736.3236A2.0354,2.0354,0,0,1,84.6246,739Z"/><rect class="cls-17" x="48" y="739" width="15" height="15"/><path class="cls-20" d="M120,734.19V600L77.8565,731.1042a2.3465,2.3465,0,0,0,2.2271,3.0854Z"/><path class="cls-21" d="M120,734.19V600l42.1435,131.1042a2.3465,2.3465,0,0,1-2.2271,3.0854Z"/><rect class="cls-17" x="113.1831" y="734.1896" width="14.9971" height="19.8104"/><path class="cls-20" d="M87,743.87V645.446L56.0889,741.6074a1.721,1.721,0,0,0,1.6335,2.263Z"/><path class="cls-21" d="M87,743.87V645.446l30.9111,96.1614a1.721,1.721,0,0,1-1.6335,2.263Z"/><rect class="cls-17" x="82" y="743.8704" width="11" height="10.1296"/></g><path class="cls-22" d="M247,734a5.011,5.011,0,0,0-1.0392.1113,3.4866,3.4866,0,0,0-6.6991-.9309,4.8664,4.8664,0,0,0-5.2955,1.888,6.9811,6.9811,0,0,0-9.1669-.6584,5.9862,5.9862,0,0,0-7.616-1.7066,5.9929,5.9929,0,0,0-10.1588,3.8107A8.9917,8.9917,0,0,0,211,753.9413V754h41V739A5,5,0,0,0,247,734Z"/><path class="cls-23" d="M622.3465,667.0286a21.3515,21.3515,0,0,0,1.1059-2.0467A20.7751,20.7751,0,0,0,625.5,656a21,21,0,0,0-21-21,21.2511,21.2511,0,0,0-2.1309.1076,19.9588,19.9588,0,0,0-9.2041-5.41,20.0108,20.0108,0,0,0-28.8656-23.1824,34.8542,34.8542,0,0,0-15.2417-3.514c-.0193,0-.0383-.0016-.0577-.0016a35,35,0,1,0,6.7729,69.3391A21.9995,21.9995,0,0,0,594.4354,693a20.49,20.49,0,1,0,27.9111-25.9713Z"/><path class="cls-24" d="M294.0956,662v5.0939L283,673.5l-11.0956-6.4061V662h-4.8088v5.0939L256,673.5l-4-2.3094v25.9945l4-2.31,11.0956,6.4061v12.8122L256,720.5l-4-2.3094V754h57V662Zm-36.1912,28.0939V677.2817L269,670.8756l11.0956,6.4061v12.8122L269,696.5Zm36.1912,24L283,720.5l-11.0956-6.4061V701.2817L283,694.8756l11.0956,6.4061Z"/><polygon class="cls-25" points="280.096 677.282 269 670.876 257.904 677.282 257.904 690.094 269 696.5 280.096 690.094 280.096 677.282"/><polygon class="cls-25" points="271.904 701.282 271.904 714.094 283 720.5 294.096 714.094 294.096 701.282 283 694.876 271.904 701.282"/><polygon class="cls-25" points="267.096 714.094 267.096 701.282 256 694.876 252 697.185 252 718.191 256 720.5 267.096 714.094"/><polygon class="cls-25" points="283 673.5 294.096 667.094 294.096 662 271.904 662 271.904 667.094 283 673.5"/><polygon class="cls-25" points="267.096 667.094 267.096 662 252 662 252 671.191 256 673.5 267.096 667.094"/><path class="cls-26" d="M336,455H478a0,0,0,0,1,0,0V754a0,0,0,0,1,0,0H333a0,0,0,0,1,0,0V458A3,3,0,0,1,336,455Z"/><path class="cls-27" d="M202,570H333a0,0,0,0,1,0,0v92a0,0,0,0,1,0,0H202a3,3,0,0,1-3-3V573A3,3,0,0,1,202,570Z"/><rect class="cls-5" x="340" y="463" width="33" height="57" rx="3"/><path class="cls-5" d="M471,514.584a3,3,0,0,1-2.9148,2.9988L383,520a3,3,0,0,1-3-3V466a3,3,0,0,1,3-3h85a3,3,0,0,1,3,3Z"/><path class="cls-5" d="M468,583H383a3,3,0,0,1-3-3V529a3,3,0,0,1,3-3l84.8638-3.8574A3,3,0,0,1,471,525.14V580A3,3,0,0,1,468,583Z"/><path class="cls-5" d="M471,644.931a3,3,0,0,1-3.0682,2.9993L383,646a3,3,0,0,1-3-3V592a3,3,0,0,1,3-3h85a3,3,0,0,1,3,3Z"/><rect class="cls-5" x="380" y="652" width="90.5" height="54.5" rx="3"/><rect class="cls-5" x="340" y="526" width="33" height="57" rx="3"/><rect class="cls-5" x="340" y="589" width="33" height="57" rx="3"/><rect class="cls-5" x="340" y="652" width="33" height="95" rx="3"/><rect class="cls-28" x="413" y="711" width="10.0737" height="23" rx="1.6109"/><rect class="cls-28" x="429" y="711" width="10.0737" height="23" rx="1.6109"/><rect class="cls-28" x="445" y="711" width="10.0737" height="23" rx="1.6109"/><rect class="cls-28" x="461" y="711" width="10.0737" height="23" rx="1.6109"/><path class="cls-29" d="M209.5,578.5H333a0,0,0,0,1,0,0v75a0,0,0,0,1,0,0H209.5a3,3,0,0,1-3-3v-69A3,3,0,0,1,209.5,578.5Z"/><path class="cls-30" d="M381.2222,711.5h23.5556a.7222.7222,0,0,1,.7222.7222V754a0,0,0,0,1,0,0h-25a0,0,0,0,1,0,0V712.2222A.7222.7222,0,0,1,381.2222,711.5Z"/><circle class="cls-16" cx="400.5" cy="741.5" r="2.5"/><polygon class="cls-31" points="478 616.222 517 655 517 754 478 754 478 616.222"/><polygon class="cls-32" points="478 616.222 516.98 655 573 655 534.168 616.37 478 616.222"/><rect class="cls-33" x="517" y="655" width="56" height="99"/><rect class="cls-34" x="525.5" y="660.5" width="41" height="13.5"/><circle class="cls-35" cx="494.5" cy="658.5" r="8"/><circle class="cls-35" cx="494.5" cy="679.5" r="8"/><circle class="cls-35" cx="494.5" cy="700.5" r="8"/><circle class="cls-35" cx="494.5" cy="721.5" r="8"/><polygon class="cls-36" points="558.794 710.75 558.794 701.25 551 696.5 543.206 701.25 543.206 710.75 551 715.5 558.794 710.75"/><polygon class="cls-36" points="568.794 693.75 568.794 684.25 561 679.5 553.206 684.25 553.206 693.75 561 698.5 568.794 693.75"/><polygon class="cls-36" points="568.794 726.75 568.794 717.25 561 712.5 553.206 717.25 553.206 726.75 561 731.5 568.794 726.75"/><polygon class="cls-36" points="548.794 726.75 548.794 717.25 541 712.5 533.206 717.25 533.206 726.75 541 731.5 548.794 726.75"/><polygon class="cls-36" points="573 713.672 570 715.5 562.206 710.75 562.206 701.25 570 696.5 573 698.328 573 713.672"/><polygon class="cls-36" points="558.794 744.75 558.794 735.25 551 730.5 543.206 735.25 543.206 744.75 551 749.5 558.794 744.75"/><path class="cls-37" d="M573,687H805a1,1,0,0,1,1,1v66a0,0,0,0,1,0,0H573a0,0,0,0,1,0,0V687A0,0,0,0,1,573,687Z"/><path class="cls-38" d="M581.5,694.5h11a2,2,0,0,1,2,2V754a0,0,0,0,1,0,0h-15a0,0,0,0,1,0,0V696.5A2,2,0,0,1,581.5,694.5Z"/><path class="cls-38" d="M601.5,694.5h11a2,2,0,0,1,2,2V754a0,0,0,0,1,0,0h-15a0,0,0,0,1,0,0V696.5A2,2,0,0,1,601.5,694.5Z"/><path class="cls-38" d="M622.5,694.5h11a2,2,0,0,1,2,2V754a0,0,0,0,1,0,0h-15a0,0,0,0,1,0,0V696.5A2,2,0,0,1,622.5,694.5Z"/><path class="cls-38" d="M642.5,694.5h11a2,2,0,0,1,2,2V754a0,0,0,0,1,0,0h-15a0,0,0,0,1,0,0V696.5A2,2,0,0,1,642.5,694.5Z"/><path class="cls-38" d="M662.5,694.5h11a2,2,0,0,1,2,2V754a0,0,0,0,1,0,0h-15a0,0,0,0,1,0,0V696.5A2,2,0,0,1,662.5,694.5Z"/><path class="cls-38" d="M682.5,694.5h11a2,2,0,0,1,2,2V754a0,0,0,0,1,0,0h-15a0,0,0,0,1,0,0V696.5A2,2,0,0,1,682.5,694.5Z"/><path class="cls-38" d="M703.5,694.5h11a2,2,0,0,1,2,2V754a0,0,0,0,1,0,0h-15a0,0,0,0,1,0,0V696.5A2,2,0,0,1,703.5,694.5Z"/><path class="cls-38" d="M723.5,694.5h11a2,2,0,0,1,2,2V754a0,0,0,0,1,0,0h-15a0,0,0,0,1,0,0V696.5A2,2,0,0,1,723.5,694.5Z"/><path class="cls-38" d="M742.5,694.5h11a2,2,0,0,1,2,2V754a0,0,0,0,1,0,0h-15a0,0,0,0,1,0,0V696.5A2,2,0,0,1,742.5,694.5Z"/><path class="cls-38" d="M762.5,694.5h11a2,2,0,0,1,2,2V754a0,0,0,0,1,0,0h-15a0,0,0,0,1,0,0V696.5A2,2,0,0,1,762.5,694.5Z"/><path class="cls-39" d="M572.875,736.5417l13.2463-13.2464a3,3,0,0,1,2.1213-.8786h32.5981a3,3,0,0,0,2.1213-.8787l17.1593-17.1593a3,3,0,0,1,2.1213-.8787H806v15H647.7426a3,3,0,0,0-2.1213.8787l-15.7426,16.7426a3,3,0,0,1-2.1213.8787H595.7426a3,3,0,0,0-2.1213.8787l-16.9824,15.9824L573,754Z"/><path class="cls-40" d="M581.5,743a5.4924,5.4924,0,0,0-1.5143.2161,6.4815,6.4815,0,0,0-8.2938-5.956,8.489,8.489,0,0,0-16.1525-.7175,8.9727,8.9727,0,0,0-9.6108-.2853A8.9807,8.9807,0,0,0,539,733a3.99,3.99,0,0,0-7.5713-1.7677,4.89,4.89,0,0,0-5.9781,2.7153,7.4782,7.4782,0,0,0-10.2487-1.5883,4.9607,4.9607,0,0,0-8.0829-2.0223,6.7359,6.7359,0,0,0-11.1384,3.1892,6.748,6.748,0,0,0-5.8983,4.6379A7.93,7.93,0,0,0,490.875,754c.0422,0,.0829-.0056.125-.0062V754h90v-.0252c.1649.0149.3312.0252.5.0252a5.5,5.5,0,0,0,0-11Z"/><polygon class="cls-9" points="1328.111 599 1328.111 583.778 1414.333 583.778 1414.333 754 1328.111 754 1328.111 599"/><rect class="cls-10" x="1342.5" y="514.5" width="40.7222" height="239.5"/><polygon class="cls-8" points="1440 511.778 1403.667 541 1403.667 754 1440 754 1440 511.778"/><polygon class="cls-10" points="1233.444 609 1276 541 1276 595.333 1335 595.333 1335 754 1233.444 754 1233.444 609"/><path class="cls-17" d="M930.7869,725.9794v6.5391l4.385-7.1059L939,720l7,2-3,3.9868S932.2222,735,932.1111,740H918.3333S918,725,917,721s14.5-3.4444,14.5-3.4444Z"/><path class="cls-41" d="M978.9492,674.2754a22,22,0,0,0-18.8285-31.2471,21.9621,21.9621,0,0,0-9.05-5.1731,18.9715,18.9715,0,0,0-26.3662-22.9286,33.4978,33.4978,0,0,0-44.6877,30.9065,33.4968,33.4968,0,0,0-17.6751,42.969,27.4966,27.4966,0,0,0,33.5422,42.72,23.0031,23.0031,0,0,0,25.9608-7.0154,23.0158,23.0158,0,0,0,18.2956-.8616,31.4974,31.4974,0,1,0,38.8089-49.37Z"/><path class="cls-42" d="M836.7407,742V629L801.5661,739.4018A1.9732,1.9732,0,0,0,803.4249,742Z"/><path class="cls-43" d="M836.7407,742V629l35.1747,110.4018A1.9732,1.9732,0,0,1,870.0565,742Z"/><path class="cls-42" d="M888.86,745.8258V650.1742l-29.7744,93.4523a1.67,1.67,0,0,0,1.5735,2.1993Z"/><path class="cls-43" d="M888.86,745.8258V650.1742l29.7745,93.4523a1.67,1.67,0,0,1-1.5735,2.1993Z"/><path class="cls-44" d="M770.1667,740H940.8333A2.1667,2.1667,0,0,1,943,742.1667V754a0,0,0,0,1,0,0H768a0,0,0,0,1,0,0V742.1667A2.1667,2.1667,0,0,1,770.1667,740Z"/><path class="cls-17" d="M1143,734.9878v8.8672l4.385-9.6358,3.8281-7.34,7,2.7121-3,5.4061S1144.4353,747.22,1144.3242,754h-13.7778s-.3333-20.34-1.3333-25.7644,14.5-4.6707,14.5-4.6707Z"/><path class="cls-41" d="M1198.6621,657.2927A22.5,22.5,0,0,0,1179.5,623c-.229,0-.4554.01-.6829.0173a22.4317,22.4317,0,0,0-13.7729-6.87,18.98,18.98,0,0,0-28.4761-24.4939,35.01,35.01,0,0,0-47.811,17.7087,22.9877,22.9877,0,0,0-26.4124-2.1881,33.9936,33.9936,0,0,0-48.3334,30.38,33.988,33.988,0,0,0-15.7774,38.5193C990.7589,681.6674,986,690.0841,986,699.5c0,16.8447,15.2223,30.5,34,30.5s34-13.6553,34-30.5a27.5785,27.5785,0,0,0-.84-6.7258,33.9134,33.9134,0,0,0,11.76-23.5621,25.9572,25.9572,0,0,0,20.9077,10.7827,34.517,34.517,0,0,0,37.2058,41.8262,34.4954,34.4954,0,0,0,58.02-16.3072,25.993,25.993,0,0,0,17.6079-48.2211Z"/><polygon class="cls-45" points="1019 754 1019 625 1054 654 1054 628 1089 654 1089 632.667 1125 654 1125 754 1019 754"/><polygon class="cls-46" points="1125 654 1138 660 1138 754 1125 754 1125 654"/><polygon class="cls-47" points="1019 625 1054 644.889 1054 654 1019 625"/><polygon class="cls-47" points="1054 628 1089 646.222 1089 654 1054 628"/><polygon class="cls-47" points="1138 657.852 1138 660 1125 654 1089 632.667 1138 657.852"/><path class="cls-48" d="M1049.5926,671h13.8148A1.5926,1.5926,0,0,1,1065,672.5926V754a0,0,0,0,1,0,0h-17a0,0,0,0,1,0,0V672.5926A1.5926,1.5926,0,0,1,1049.5926,671Z"/><path class="cls-48" d="M1069.5926,671h13.8148A1.5926,1.5926,0,0,1,1085,672.5926V754a0,0,0,0,1,0,0h-17a0,0,0,0,1,0,0V672.5926A1.5926,1.5926,0,0,1,1069.5926,671Z"/><path class="cls-48" d="M1089.5926,671h11.8148A1.5926,1.5926,0,0,1,1103,672.5926V754a0,0,0,0,1,0,0h-15a0,0,0,0,1,0,0V672.5926A1.5926,1.5926,0,0,1,1089.5926,671Z"/><circle class="cls-49" cx="1035.5" cy="679.5" r="8.5"/><circle class="cls-49" cx="1035.5" cy="699.5" r="8.5"/><circle class="cls-49" cx="1035.5" cy="719.5" r="8.5"/><path class="cls-40" d="M1043.0408,743a4.5021,4.5021,0,0,0-1.3655.2161c-.135-3.4571-2.6975-6.2161-5.848-6.2161a5.3219,5.3219,0,0,0-1.63.26,7.838,7.838,0,0,0-7.3864-6.26,7.7421,7.7421,0,0,0-7.1779,5.5426,7.4267,7.4267,0,0,0-8.6659-.2853A7.8137,7.8137,0,0,0,1004.7194,733a3.8186,3.8186,0,0,0-3.6067-4,3.5834,3.5834,0,0,0-3.22,2.2323A4.0618,4.0618,0,0,0,996.6043,731a4.5082,4.5082,0,0,0-4.1021,2.9476A6.5433,6.5433,0,0,0,987.1367,731a6.2827,6.2827,0,0,0-3.8755,1.3593,4.558,4.558,0,0,0-4.24-3.3593,4.2522,4.2522,0,0,0-3.0486,1.337,5.7562,5.7562,0,0,0-4.1648-1.837,757.1747,757.1747,0,0,0-11.1968,9.6641A7.724,7.724,0,0,0,954,746.0625c0,4.3837,3.28,7.9375,7.3261,7.9375.0381,0,.0748-.0056.1127-.0062V754H1042.59v-.0252a4.5115,4.5115,0,0,0,.4509.0252,5.5295,5.5295,0,0,0,0-11Z"/><polygon class="cls-17" points="1363 724 1364 729 1371.37 719.333 1379 723 1366.926 735 1366 742 1344 743.778 1338 728 1363 724"/><path class="cls-41" d="M1418,689.5a20.4363,20.4363,0,0,0-7.1039-15.4951A20.4778,20.4778,0,0,0,1395.5,640c-.6587,0-1.3083.0378-1.9512.0985a19.5255,19.5255,0,0,0-8.3972-5.91,19.4808,19.4808,0,0,0-28.4183-22.5487A32.0046,32.0046,0,0,0,1312,641c0,.8115.04,1.6131.1,2.4094C1301.0879,649.815,1294,659.788,1294,671a27.3723,27.3723,0,0,0,3.5913,13.4305C1288.0217,689.7392,1282,697.4347,1282,706c0,16.0162,21.0426,29,47,29,16.81,0,31.55-5.449,39.8571-13.6366a20.4687,20.4687,0,0,0,31.4288-11.5745A20.4879,20.4879,0,0,0,1418,689.5Z"/><path class="cls-40" d="M1380.6187,745.8039a6.9535,6.9535,0,0,0-1.4817.1611c-.1464-2.576-2.927-4.6317-6.3456-4.6317a8.2144,8.2144,0,0,0-1.7691.1939c-.9629-2.6868-4.1818-4.6645-8.0151-4.6645-3.5739,0-6.6124,1.72-7.7888,4.13a10.7923,10.7923,0,0,0-4.9306-1.1494,10.9034,10.9034,0,0,0-4.4728.9368,10.0638,10.0638,0,0,0-6.779-2.427c0-1.646-1.7522-2.98-3.9137-2.98a4.1424,4.1424,0,0,0-3.4942,1.6633,6.2414,6.2414,0,0,0-1.3979-.1731,5.13,5.13,0,0,0-4.4512,2.1963,8.2813,8.2813,0,0,0-5.8222-2.1963,8.9516,8.9516,0,0,0-4.2053,1.0128,4.9621,4.9621,0,0,0-4.6-2.503,5.7647,5.7647,0,0,0-3.3081.9963A7.79,7.79,0,0,0,1303.3237,735c-3.0634,0-5.6322,1.5907-6.3787,3.745-2.71.1576-4.9611,1.5571-5.771,3.4557-4.0263.29-7.174,2.8136-7.174,5.8851,0,3.2663,3.5592,5.9142,7.95,5.9142.0413,0,.0812-.0041.1223-.0046V754H1380.13v-.0188c.1614.0111.324.0188.4892.0188,2.972,0,5.3813-1.8348,5.3813-4.098S1383.5907,745.8039,1380.6187,745.8039Z"/><path class="cls-17" d="M1261,742.7689v5.2381l2.59-5.6922,2.2613-4.3357,4.1352,1.6021-1.7722,3.1936s-6.3668,7.22-6.4324,11.2252h-8.139s-.1969-12.0156-.7877-15.22,8.5657-2.7592,8.5657-2.7592Z"/><path class="cls-41" d="M1293,728a15.9352,15.9352,0,0,0-4.4973-11.1057,15.93,15.93,0,0,0-13.6839-19.7838,10.5374,10.5374,0,0,0-3.0073-2.657,10.4861,10.4861,0,0,0-16.7308-10.25,15.9616,15.9616,0,0,0-21.5285,18.9045,15.8889,15.8889,0,0,0-5.9646,17.1375,16.482,16.482,0,0,0,19.719,25.2729,15.83,15.83,0,0,0,12.378.4231A16.4551,16.4551,0,0,0,1284.562,742.1,15.9941,15.9941,0,0,0,1293,728Z"/><polygon class="cls-26" points="1380.556 704 1413 671 1440 699.63 1440 754 1380.619 754 1380.556 704"/><polygon class="cls-47" points="1440 671 1413 671 1440 699.63 1440 671"/><path class="cls-30" d="M1412.5,716.5h0a8,8,0,0,1,8,8v29a0,0,0,0,1,0,0h-16a0,0,0,0,1,0,0v-29a8,8,0,0,1,8-8Z"/><circle class="cls-49" cx="1412.5" cy="695.5" r="8"/></svg>