<?xml version="1.0" encoding="utf-8"?>
<!-- Generator: Adobe Illustrator 26.0.1, SVG Export Plug-In . SVG Version: 6.00 Build 0)  -->
<svg version="1.1" id="Laag_1" xmlns="http://www.w3.org/2000/svg" xmlns:xlink="http://www.w3.org/1999/xlink" x="0px" y="0px"
	 viewBox="0 0 12 11" style="enable-background:new 0 0 12 11;" xml:space="preserve">
<style type="text/css">
	.st0{fill:#868686;}
</style>
<g>
	<path class="st0" d="M11.8,10.9H0.2l-0.1-0.4c0-0.1-0.2-1.6,1.2-2.8C1.8,7.3,2.3,7,2.7,6.7c0.5-0.3,1-0.6,1-0.9
		c0-0.4-0.2-0.7-0.4-1.1C3.3,4.7,3.2,4.5,3.1,4.4C2.6,3.3,2.8,2.1,3.7,1.1c0.9-1,2.2-1.3,3.4-0.8c1.3,0.5,2.4,2,2,3.5
		C9,4.2,8.8,4.5,8.7,4.8C8.5,5.2,8.3,5.5,8.3,5.9c0,0.2,0.5,0.6,1,0.9c0.4,0.3,0.9,0.5,1.4,0.9c1.4,1.2,1.2,2.7,1.2,2.8L11.8,10.9z
		 M1.1,9.9h9.7c-0.1-0.4-0.2-0.9-0.8-1.4l0,0C9.6,8.1,9.2,7.8,8.8,7.6C8,7.1,7.3,6.7,7.3,5.9c0-0.6,0.3-1.1,0.5-1.5
		C7.9,4,8,3.8,8.1,3.5c0.2-1-0.5-2-1.4-2.3C5.9,0.9,5,1.1,4.4,1.8C3.8,2.4,3.7,3.2,4.1,4c0.1,0.1,0.1,0.2,0.2,0.3
		c0.2,0.4,0.5,0.9,0.5,1.5c0,0.8-0.7,1.2-1.5,1.7C2.8,7.8,2.4,8.1,2,8.4C1.4,8.9,1.2,9.5,1.1,9.9z"/>
</g>
</svg>
