<?xml version="1.0" encoding="utf-8"?>
<!-- Generator: Adobe Illustrator 26.0.1, SVG Export Plug-In . SVG Version: 6.00 Build 0)  -->
<svg version="1.1" id="Laag_1" xmlns="http://www.w3.org/2000/svg" xmlns:xlink="http://www.w3.org/1999/xlink" x="0px" y="0px"
	 viewBox="0 0 12 12" style="enable-background:new 0 0 12 12;" xml:space="preserve">
<style type="text/css">
	.st0{fill:#868686;}
</style>
<g>
	<path class="st0" d="M10.5,1.5H9.8V0.8C9.8,0.3,9.4,0,9,0H1.5C1.1,0,0.8,0.3,0.8,0.8v10.5c0,0.4,0.3,0.8,0.8,0.8H9
		c0.4,0,0.8-0.3,0.8-0.8v-0.8h0.8c0.5,0,0.8-0.2,0.8-0.8V7.5v0v-3V2.2C11.2,1.7,11,1.5,10.5,1.5z M10.5,1.9c0.3,0,0.4,0.1,0.4,0.4
		v1.9H9.8V1.9H10.5z M9.8,4.9h1.1v2.3H9.8V4.9z M9.2,11.2c0,0.1-0.1,0.2-0.2,0.2H1.5c-0.1,0-0.2-0.1-0.2-0.2V0.8
		c0-0.1,0.1-0.2,0.2-0.2H9c0.1,0,0.2,0.1,0.2,0.2V11.2z M10.9,9.8c0,0.3-0.1,0.4-0.4,0.4H9.8V7.9h1.1V9.8z"/>
	<path class="st0" d="M8.1,1.5H2.4c-0.1,0-0.2,0.1-0.2,0.2v1.9c0,0.1,0.1,0.2,0.2,0.2h5.6c0.1,0,0.2-0.1,0.2-0.2V1.7
		C8.2,1.6,8.2,1.5,8.1,1.5z"/>
</g>
</svg>
