<svg id="Laag_1" data-name="Laag 1" xmlns="http://www.w3.org/2000/svg" xmlns:xlink="http://www.w3.org/1999/xlink" width="81.1389mm" height="28.2222mm" viewBox="0 0 230 80"><defs><style>.cls-1,.cls-2{fill-rule:evenodd;}.cls-1{fill:url(#Naamloos_verloop);}.cls-2{fill:#fff;}</style><linearGradient id="Naamloos_verloop" x1="-5.3696" y1="116.2316" x2="-5.3696" y2="115.2316" gradientTransform="matrix(46, 0, 0, -46, 270, 5363.652)" gradientUnits="userSpaceOnUse"><stop offset="0" stop-color="#ff840e"/><stop offset="0.0843" stop-color="#ff710e"/><stop offset="0.7348" stop-color="red"/><stop offset="1" stop-color="#f10a00"/></linearGradient></defs><path class="cls-1" d="M0,21.374V58.626A4.3736,4.3736,0,0,0,4.374,63H41.626A4.3736,4.3736,0,0,0,46,58.626V21.374A4.3736,4.3736,0,0,0,41.626,17H4.374A4.3736,4.3736,0,0,0,0,21.374Z"/><path class="cls-2" d="M12.324,54.65a19.96,19.96,0,0,0,9.192,2.1c8.69,0,12.808-4.592,12.808-9.917,0-4.738-2.813-7.62-8.69-9.77-4.52-1.71-6.48-2.882-6.48-5.422,0-1.95,1.66-3.95,5.577-3.95a14.9624,14.9624,0,0,1,6.78,1.57l1.46-4.833a18.0439,18.0439,0,0,0-8.08-1.66c-7.38,0-12,4.055-12,9.477,0,4.74,3.57,7.62,9.19,9.575,4.27,1.514,5.98,2.98,5.98,5.47,0,2.69-2.21,4.495-6.13,4.495a17.3268,17.3268,0,0,1-8.182-2.1l-1.406,4.98Z"/><path class="cls-2" d="M60.723,48.953c3.385,0,5.756-1.83,5.756-4.907,0-2.77-1.78-4.016-5.18-4.86-3.09-.752-3.83-1.316-3.83-2.584,0-1.127.96-1.996,2.62-1.996a7.2332,7.2332,0,0,1,4.37,1.69l1.52-2.183a8.83,8.83,0,0,0-5.85-2.066c-3.2,0-5.5,1.95-5.5,4.767,0,3.076,1.933,4.11,5.363,4.954,2.99.704,3.636,1.338,3.636,2.512,0,1.292-1.105,2.114-2.855,2.114a7.3456,7.3456,0,0,1-5.088-2.137L54,46.323A9.825,9.825,0,0,0,60.723,48.953ZM69,49h3V37l4.856,7.68L82,37V49h3V32H81.76l-4.9,8.054L71.952,32H69Zm17.658,0L93.75,32h2.624l7.092,17h-2.993l-1.635-4.25h-7.62L89.558,49Zm5.595-6.81h5.55l-2.787-6.574-2.763,6.575ZM105.347,49V32h7.184a6.5729,6.5729,0,0,1,4.66,1.925,5.0371,5.0371,0,0,1,1.34,3.546,4.9358,4.9358,0,0,1-3.842,5.03l4.35,6.51H115.7L111.74,43h-3.546v6h-2.847Zm2.832-8.57h4.14c2.02,0,3.31-1.08,3.31-2.748v-.047c0-1.76-1.25-2.723-3.34-2.723h-4.12V40.43ZM125,49h3V35h4.97V32H120v3h5.003V49Zm15.374-.047c3.384,0,5.756-1.83,5.756-4.907,0-2.77-1.773-4.016-5.18-4.86-3.086-.752-3.823-1.316-3.823-2.584,0-1.127.966-1.996,2.624-1.996a7.237,7.237,0,0,1,4.38,1.69l1.52-2.183a8.8207,8.8207,0,0,0-5.85-2.066c-3.2,0-5.5,1.95-5.5,4.767,0,3.076,1.94,4.11,5.37,4.954,2.995.704,3.64,1.338,3.64,2.512,0,1.292-1.103,2.114-2.853,2.114a7.3539,7.3539,0,0,1-5.09-2.137l-1.703,2.066a9.83,9.83,0,0,0,6.725,2.63ZM156.07,49a8.25,8.25,0,0,0,6.54-2.912l-1.82-1.878a6.2669,6.2669,0,0,1-4.628,2.137c-3.085,0-5.32-2.63-5.32-5.847,0-3.264,2.235-5.847,5.32-5.847a6.3561,6.3561,0,0,1,4.513,2.043l1.818-2.137a8.5263,8.5263,0,0,0-14.62,5.94,8.2057,8.2057,0,0,0,8.197,8.5ZM165,49h3V41.79h7V49h3V32h-3v7.115h-7V32h-3Zm24.007,0a8.2625,8.2625,0,0,1-8.404-8.453A8.3509,8.3509,0,0,1,189.053,32a8.2625,8.2625,0,0,1,8.404,8.453A8.3509,8.3509,0,0,1,189.007,49Zm.046-2.653a5.5068,5.5068,0,0,0,5.434-5.8V40.5a5.5842,5.5842,0,0,0-5.48-5.847,5.5068,5.5068,0,0,0-5.434,5.8V40.5A5.5842,5.5842,0,0,0,189.053,46.347ZM207.696,49a8.2625,8.2625,0,0,1-8.404-8.453A8.3509,8.3509,0,0,1,207.742,32a8.2625,8.2625,0,0,1,8.404,8.453A8.3509,8.3509,0,0,1,207.696,49Zm.046-2.653a5.5068,5.5068,0,0,0,5.434-5.8V40.5a5.5842,5.5842,0,0,0-5.48-5.847,5.506,5.506,0,0,0-5.433,5.8V40.5a5.5842,5.5842,0,0,0,5.48,5.847ZM219,49h11V46h-8V32h-3Z"/></svg>