<?xml version="1.0" encoding="utf-8"?>
<!-- Generator: Adobe Illustrator 26.0.1, SVG Export Plug-In . SVG Version: 6.00 Build 0)  -->
<svg version="1.1" id="Capa_1" xmlns="http://www.w3.org/2000/svg" xmlns:xlink="http://www.w3.org/1999/xlink" x="0px" y="0px"
	 viewBox="0 0 292.5 292.5" style="enable-background:new 0 0 292.5 292.5;" xml:space="preserve">
<style type="text/css">
	.st0{fill:#FFFFFF;}
</style>
<g>
	<g>
		<path class="st0" d="M220.9,83.8c1.8,0,3.7-0.7,5.1-2.1l25.9-25.9c2.8-2.8,2.8-7.4,0-10.2c-2.8-2.8-7.4-2.8-10.2,0l-25.9,25.9
			c-2.8,2.8-2.8,7.4,0,10.2C217.2,83.1,219.1,83.8,220.9,83.8z"/>
		<path class="st0" d="M143.3,245.4c-4,0-7.2,3.2-7.2,7.2v30.1c0,4,3.2,7.2,7.2,7.2s7.2-3.2,7.2-7.2v-30.1
			C150.5,248.7,147.3,245.4,143.3,245.4z"/>
		<path class="st0" d="M66.3,210.8l-25.9,25.9c-2.8,2.8-2.8,7.4,0,10.2c1.4,1.4,3.3,2.1,5.1,2.1c1.9,0,3.7-0.7,5.1-2.1l25.9-25.9
			c2.8-2.8,2.8-7.4,0-10.2C73.7,208,69.1,208,66.3,210.8z"/>
		<path class="st0" d="M149,47.1c4,0,7.2-3.2,7.2-7.2V9.8c0-4-3.2-7.2-7.2-7.2c-4,0-7.2,3.2-7.2,7.2v30.1
			C141.8,43.9,145,47.1,149,47.1z"/>
		<path class="st0" d="M60.5,81.7c1.4,1.4,3.3,2.1,5.1,2.1c1.9,0,3.7-0.7,5.1-2.1c2.8-2.8,2.8-7.4,0-10.2L44.8,45.6
			c-2.8-2.8-7.4-2.8-10.2,0c-2.8,2.8-2.8,7.4,0,10.2L60.5,81.7z"/>
		<path class="st0" d="M47,146.8c0-4-3.2-7.2-7.2-7.2H7.2c-4,0-7.2,3.2-7.2,7.2c0,4,3.2,7.2,7.2,7.2h32.5
			C43.7,154.1,47,150.8,47,146.8z"/>
		<polygon class="st0" points="149,88.8 149,88.8 149,88.8 		"/>
		<path class="st0" d="M285.3,139.6h-38.5c-4,0-7.2,3.2-7.2,7.2c0,4,3.2,7.2,7.2,7.2h38.5c4,0,7.2-3.2,7.2-7.2
			C292.5,142.8,289.3,139.6,285.3,139.6z"/>
		<g>
			<path class="st0" d="M207,103.8c-4.2-5.7-9.3-10.8-15-15c-12-8.9-26.9-14.2-43-14.2c-39.8,0-72.2,32.4-72.2,72.2
				c0,39.8,32.4,72.2,72.2,72.2c16.1,0,31-5.3,43-14.2c5.7-4.2,10.8-9.3,15-15c8.9-12,14.2-26.9,14.2-43
				C221.3,130.7,216,115.9,207,103.8z M91,146.8c0-32,26-58,58-58v0h0c0,0,0,0,0,0v116C117,204.8,91,178.8,91,146.8z"/>
			<path class="st0" d="M257.7,236.7l-25.9-25.9c-2.8-2.8-7.4-2.8-10.2,0c-2.8,2.8-2.8,7.4,0,10.2l25.9,25.9
				c1.4,1.4,3.3,2.1,5.1,2.1c1.8,0,3.7-0.7,5.1-2.1C260.5,244.1,260.5,239.5,257.7,236.7z"/>
		</g>
	</g>
</g>
</svg>
